HIERARCHY
ROOT Hips
{
	OFFSET 0.000000 0.000000 0.000000
	CHANNELS 6 Xposition Yposition Zposition Zrotation Yrotation Xrotation 
	JOINT LeftUpLeg_virtual
	{
		OFFSET 0.000000 0.000000 0.000000
		CHANNELS 3 Zrotation Yrotation Xrotation
		JOINT LeftUpLeg
		{
			OFFSET 8.479694 -4.795517 -0.379053
			CHANNELS 3 Zrotation Yrotation Xrotation
			JOINT LeftLeg
			{
				OFFSET 0.485052 -32.551468 0.112863
				CHANNELS 3 Zrotation Yrotation Xrotation
				JOINT LeftFoot
				{
					OFFSET 0.438033 -32.635670 -3.012641
					CHANNELS 3 Zrotation Yrotation Xrotation
					JOINT LeftToeBase
					{
						OFFSET 0.970169 -13.225353 11.864223
						CHANNELS 3 Zrotation Yrotation Xrotation
						End Site
						{
							OFFSET 0.000000 0.000000 0.000000
						}
					}
				}
			}
		}
	}
	JOINT RightUpLeg_virtual
	{
		OFFSET 0.000000 0.000000 0.000000
		CHANNELS 3 Zrotation Yrotation Xrotation
		JOINT RightUpLeg
		{
			OFFSET -8.479694 -4.795517 -0.379053
			CHANNELS 3 Zrotation Yrotation Xrotation
			JOINT RightLeg
			{
				OFFSET -0.484100 -32.551483 0.112903
				CHANNELS 3 Zrotation Yrotation Xrotation
				JOINT RightFoot
				{
					OFFSET -0.438985 -32.635651 -3.012681
					CHANNELS 3 Zrotation Yrotation Xrotation
					JOINT RightToeBase
					{
						OFFSET -0.970169 -13.225354 11.864223
						CHANNELS 3 Zrotation Yrotation Xrotation
						End Site
						{
							OFFSET 0.000000 0.000000 0.000000
						}
					}
				}
			}
		}
	}
	JOINT Spine_virtual
	{
		OFFSET 0.000000 0.000000 0.000000
		CHANNELS 3 Zrotation Yrotation Xrotation
		JOINT Spine
		{
			OFFSET 0.000000 7.722015 1.166203
			CHANNELS 3 Zrotation Yrotation Xrotation
			JOINT Spine1
			{
				OFFSET 0.000000 12.024086 0.248766
				CHANNELS 3 Zrotation Yrotation Xrotation
				JOINT Spine2
				{
					OFFSET -0.000000 11.503036 -0.491240
					CHANNELS 3 Zrotation Yrotation Xrotation
					JOINT Neck_virtual
					{
						OFFSET 0.000000 0.000000 0.000000
						CHANNELS 3 Zrotation Yrotation Xrotation
						JOINT Neck
						{
							OFFSET 0.000000 18.430687 -3.123054
							CHANNELS 3 Zrotation Yrotation Xrotation
							JOINT Head
							{
								OFFSET -0.000000 9.051071 1.034021
								CHANNELS 3 Zrotation Yrotation Xrotation
								End Site
								{
									OFFSET 0.000000 0.000000 0.000000
								}
							}
						}
					}
					JOINT LeftShoulder_virtual
					{
						OFFSET 0.000000 0.000000 0.000000
						CHANNELS 3 Zrotation Yrotation Xrotation
						JOINT LeftShoulder
						{
							OFFSET 6.197824 13.665230 -4.064723
							CHANNELS 3 Zrotation Yrotation Xrotation
							JOINT LeftArm
							{
								OFFSET 7.778132 -0.187073 -1.709282
								CHANNELS 3 Zrotation Yrotation Xrotation
								JOINT LeftForeArm
								{
									OFFSET 21.954697 0.000000 -2.041093
									CHANNELS 3 Zrotation Yrotation Xrotation
									JOINT LeftHand
									{
										OFFSET 22.992908 0.000000 -0.870901
										CHANNELS 3 Zrotation Yrotation Xrotation
										End Site
										{
											OFFSET 0.000000 0.000000 0.000000
										}
									}
								}
							}
						}
					}
					JOINT RightShoulder_virtual
					{
						OFFSET 0.000000 0.000000 0.000000
						CHANNELS 3 Zrotation Yrotation Xrotation
						JOINT RightShoulder
						{
							OFFSET -6.197824 13.665230 -4.064723
							CHANNELS 3 Zrotation Yrotation Xrotation
							JOINT RightArm
							{
								OFFSET -7.778132 -0.187073 -1.709282
								CHANNELS 3 Zrotation Yrotation Xrotation
								JOINT RightForeArm
								{
									OFFSET -21.954697 0.000000 -2.041093
									CHANNELS 3 Zrotation Yrotation Xrotation
									JOINT RightHand
									{
										OFFSET -22.992908 0.000000 -0.870901
										CHANNELS 3 Zrotation Yrotation Xrotation
										End Site
										{
											OFFSET 0.000000 0.000000 0.000000
										}
									}
								}
							}
						}
					}
				}
			}
		}
	}
}
MOTION
Frames: 14
Frame Time: 0.033333
15.119620 82.513733 2.052475 -179.859098 -9.254175 -179.841599 -5.042887 -6.559321 12.497101 6.962695 3.401206 -22.194727 1.375367 3.008459 26.076733 -4.372445 -12.103356 -8.683882 0.000000 0.000000 0.000000 -0.164082 -8.925050 12.617455 1.882787 -10.185635 -18.306872 -1.802137 4.659268 21.782122 7.916679 7.354446 -6.586902 0.000000 0.000000 0.000000 0.192222 -4.815691 0.457597 2.773463 5.028207 -7.627523 -0.889216 -0.978846 12.214831 0.002072 -0.098902 0.016334 -0.935527 -0.080702 9.573839 1.849738 -4.346513 -1.608863 0.000000 0.000000 0.000000 0.966757 0.404379 6.633046 9.852494 -4.113033 4.634812 -63.891338 -4.100230 -0.036135 152.155742 -87.185685 -127.510343 0.000000 0.000000 0.000000 -3.819334 2.296597 5.246117 24.648561 8.910969 8.504794 26.919051 50.136498 -8.822046 -142.976664 82.230724 -145.645397 0.000000 0.000000 0.000000 
15.068688 82.485306 1.958666 -179.852145 -10.083289 -179.841545 -5.033560 -6.965363 12.433912 6.984260 3.112387 -22.203809 1.310902 3.017469 26.275799 -4.386356 -12.196349 -8.696940 0.000000 0.000000 0.000000 -0.095344 -9.350481 12.554981 1.743375 -10.173443 -18.232739 -1.754693 4.525927 21.988653 7.729256 7.216082 -6.818538 0.000000 0.000000 0.000000 0.143219 -5.190829 0.325920 2.543614 5.136368 -7.800625 -1.019625 -0.921279 12.380923 -0.029979 -0.134224 0.008266 -1.046148 0.076383 9.767261 0.067359 -3.373471 -0.890624 0.000000 0.000000 0.000000 0.907275 0.508156 6.683532 11.059250 -3.572594 4.729464 -62.436801 -4.064741 -3.463304 162.918590 -86.432670 -139.032148 0.000000 0.000000 0.000000 -3.838713 2.468865 5.341174 25.691837 9.371794 8.793605 28.775816 50.535480 -5.921631 -158.792923 78.096943 -162.277727 0.000000 0.000000 0.000000 
14.980685 82.436920 1.928585 -179.843758 -10.875323 -179.859740 -4.991915 -7.365241 12.482035 6.929915 2.957384 -22.289692 1.226543 3.016576 26.455573 -4.351532 -12.261958 -8.723308 0.000000 0.000000 0.000000 -0.011841 -9.542532 12.692335 1.640861 -10.345687 -18.413008 -1.726501 4.424413 22.321543 7.536269 7.091981 -7.074607 0.000000 0.000000 0.000000 0.123063 -5.569303 0.267447 2.309659 5.360622 -7.947690 -1.115827 -0.806943 12.587521 0.000903 -0.134448 0.027104 -1.196351 0.123538 9.953200 -1.322468 -2.439167 -0.118251 0.000000 0.000000 0.000000 0.768700 0.635546 6.798532 11.891295 -3.067617 4.769443 -61.452906 -3.781988 -6.392313 167.429752 -86.027086 -144.277200 0.000000 0.000000 0.000000 -4.003118 2.498160 5.499086 26.534158 10.032561 9.264373 30.642295 50.970492 -3.070675 -164.626929 74.471342 -168.786952 0.000000 0.000000 0.000000 
14.884909 82.390587 1.976983 -179.841435 -11.766441 -179.929695 -4.923021 -7.775503 12.593911 6.846170 2.774822 -22.444207 1.107797 2.922330 26.493204 -4.301365 -12.289340 -8.669993 0.000000 0.000000 0.000000 0.081121 -9.901114 12.612457 1.489991 -10.540349 -18.439305 -1.695764 4.386280 22.728612 7.369031 7.007794 -7.343048 0.000000 0.000000 0.000000 0.163222 -5.903795 0.300682 2.092783 5.747514 -7.988466 -1.197291 -0.594350 12.802414 -0.008483 -0.085883 0.073731 -1.262750 0.212431 10.142397 -2.302265 -1.644989 0.660372 0.000000 0.000000 0.000000 0.630175 0.759469 6.955699 12.315331 -2.809745 4.934627 -60.891027 -3.473816 -9.021672 171.439005 -86.005360 -148.966180 0.000000 0.000000 0.000000 -4.119669 2.627663 5.546321 27.324184 10.458669 9.684035 32.716760 51.227262 -0.175649 -167.740266 72.205891 -172.427839 0.000000 0.000000 0.000000 
14.802197 82.354248 2.080230 -179.837733 -12.846183 -179.911226 -4.823305 -8.201637 12.687359 6.798874 2.462835 -22.723198 0.979688 2.751070 26.470485 -4.257937 -12.260255 -8.592223 0.000000 0.000000 0.000000 0.221063 -10.201109 12.426066 1.356973 -10.909702 -18.413136 -1.670231 4.219074 23.050434 7.201004 6.918841 -7.547993 0.000000 0.000000 0.000000 0.231547 -6.307921 0.353550 1.870767 6.160960 -8.053103 -1.276782 -0.373680 13.066453 -0.023875 -0.065491 0.059443 -1.205718 0.522708 10.383406 -2.870410 -0.984704 1.437120 0.000000 0.000000 0.000000 0.544450 0.944230 7.163758 12.362287 -2.772835 5.103998 -60.873194 -2.914821 -10.916969 172.213999 -86.222389 -150.428223 0.000000 0.000000 0.000000 -4.151088 2.717247 5.820409 27.842359 11.112587 9.998372 35.085855 50.973060 3.174147 -169.021268 71.231435 -173.961667 0.000000 0.000000 0.000000 
14.740284 82.316856 2.247597 -179.893973 -14.236682 -179.926649 -4.737258 -8.718904 12.744572 6.779842 1.934812 -22.968926 0.822170 2.524583 26.381160 -4.273646 -12.192934 -8.419714 0.000000 0.000000 0.000000 0.335488 -10.805766 12.334019 1.223753 -11.297228 -18.496033 -1.639550 4.011477 23.387869 7.061219 6.852983 -7.765109 0.000000 0.000000 0.000000 0.183778 -6.778919 0.447930 1.627780 6.524170 -7.965429 -1.271113 -0.213302 13.347517 -0.024607 -0.035311 0.015411 -1.223762 0.598801 10.639040 -3.264561 -0.401043 2.089551 0.000000 0.000000 0.000000 0.433230 1.094573 7.369571 12.124357 -2.975380 5.392019 -61.034243 -2.359649 -12.301189 176.876846 -86.378957 -155.782709 0.000000 0.000000 0.000000 -4.217207 2.919060 6.090907 28.260314 11.818864 10.641409 37.182631 50.721992 6.489180 -169.109610 71.610087 -173.992403 0.000000 0.000000 0.000000 
14.716617 82.266418 2.486159 -179.954653 -15.880513 -179.946115 -4.644936 -9.307883 12.736459 6.831656 1.236108 -23.239816 0.634762 2.247927 26.350159 -4.348427 -12.090266 -8.262402 0.000000 0.000000 0.000000 0.456584 -11.530171 12.211842 1.123196 -11.789723 -18.574167 -1.610185 3.691692 23.688915 6.939447 6.808151 -8.037981 0.000000 0.000000 0.000000 0.122019 -7.297010 0.556386 1.346025 6.869096 -7.751715 -1.226019 -0.070080 13.660290 0.008902 -0.030756 0.004578 -1.201358 0.617308 10.913601 -3.470122 0.044933 2.656119 0.000000 0.000000 0.000000 0.381776 1.159764 7.593737 11.686888 -3.552884 5.733011 -61.308160 -2.148435 -13.167262 -175.163097 -86.202793 -164.463114 0.000000 0.000000 0.000000 -4.282673 3.088264 6.382701 28.507355 12.617025 11.139935 39.378824 50.273396 10.139213 -168.543551 73.208249 -173.047036 0.000000 0.000000 0.000000 
14.720963 82.186943 2.777533 -179.984296 -17.320269 -179.946962 -4.538820 -9.832435 12.652197 6.883440 0.600963 -23.551635 0.430720 1.992935 26.401205 -4.457382 -11.933393 -8.144106 0.000000 0.000000 0.000000 0.562164 -12.308418 11.863125 1.015437 -12.270787 -18.509140 -1.570183 3.483478 24.057513 6.877601 6.831988 -8.413134 0.000000 0.000000 0.000000 0.047923 -7.829979 0.665947 1.042716 7.191795 -7.466044 -1.167716 0.073796 14.024718 0.009576 -0.007602 0.021490 -1.079382 0.837209 11.182036 -3.587552 0.334718 3.101591 0.000000 0.000000 0.000000 0.435748 1.394471 7.807369 11.139590 -4.393062 5.985927 -61.517151 -2.220761 -13.672077 -165.486317 -85.908583 -174.904534 0.000000 0.000000 0.000000 -4.156371 3.264741 6.769687 28.768979 13.602873 11.640185 41.373246 50.051654 13.520565 -165.938572 75.992452 -169.753970 0.000000 0.000000 0.000000 
14.754662 82.078171 3.107731 179.948519 -18.872955 -179.931430 -4.493181 -10.479668 12.566247 6.955611 -0.146632 -23.915875 0.228882 1.761996 26.659056 -4.582494 -11.767280 -8.228978 0.000000 0.000000 0.000000 0.593942 -13.125820 11.667327 0.992629 -12.832395 -18.683504 -1.536592 3.234811 24.509459 6.829868 6.892946 -8.858106 0.000000 0.000000 0.000000 -0.055441 -8.376810 0.778112 0.714182 7.595501 -7.115261 -1.116040 0.229176 14.419108 -0.006581 -0.014244 0.033908 -0.887860 1.095680 11.528933 -3.623153 0.433266 3.447515 0.000000 0.000000 0.000000 0.536833 1.540471 8.091876 10.507790 -5.570474 6.307033 -61.633373 -2.948968 -14.073407 -156.497269 -85.878352 175.381308 0.000000 0.000000 0.000000 -4.005482 3.503291 7.117958 29.158426 14.539731 12.034449 43.034666 50.084114 16.215125 -159.685875 80.012866 -162.579689 0.000000 0.000000 0.000000 
14.817824 81.956085 3.480784 -179.996180 -20.331455 -179.945254 -4.419658 -10.985611 12.474861 7.083728 -0.722510 -24.429802 -0.012222 1.352486 26.959332 -4.693394 -11.586601 -8.400547 0.000000 0.000000 0.000000 0.667289 -13.815066 11.452848 1.101612 -13.594760 -18.854930 -1.510491 3.032693 24.963496 6.799098 6.987246 -9.312671 0.000000 0.000000 0.000000 -0.109337 -8.891287 0.891023 0.450673 8.050028 -6.743106 -1.054817 0.435112 14.862014 -0.007522 0.019639 0.021788 -0.799146 1.084556 11.915671 -3.710817 0.474531 3.769922 0.000000 0.000000 0.000000 0.569336 1.644910 8.497788 9.910848 -6.919436 6.489448 -61.371162 -4.296147 -14.739698 -137.030069 -86.915995 155.228917 0.000000 0.000000 0.000000 -3.897978 3.508445 7.610042 29.894454 15.583855 12.513545 44.023458 50.772532 18.307692 -136.825150 84.753010 -138.647431 0.000000 0.000000 0.000000 
14.912870 81.827126 3.878262 179.952207 -21.652195 -179.954775 -4.432412 -11.649364 12.616372 7.229792 -1.300362 -25.052888 -0.208288 1.217683 27.237027 -4.805825 -11.426539 -8.420278 0.000000 0.000000 0.000000 0.646747 -14.456423 11.260170 1.219719 -14.415978 -19.130598 -1.483050 3.027267 25.513784 6.778748 7.109771 -9.759557 0.000000 0.000000 0.000000 -0.210518 -9.446549 1.012774 0.173536 8.469102 -6.345496 -1.043619 0.608581 15.346622 -0.000096 0.037686 0.018723 -0.735364 1.449881 12.337477 -3.805658 0.377894 4.038906 0.000000 0.000000 0.000000 0.585838 1.797824 8.906979 9.318125 -8.156683 6.613218 -60.979164 -5.940419 -16.069707 -64.880486 -87.237280 82.477389 0.000000 0.000000 0.000000 -3.775542 3.717594 8.093661 30.879111 16.701875 13.051870 44.536713 52.178445 19.867729 -55.348277 85.197799 -55.987214 0.000000 0.000000 0.000000 
15.039603 81.708260 4.303847 179.877089 -22.877840 179.995210 -4.446016 -12.194393 12.602107 7.419594 -1.977873 -25.485748 -0.421949 1.046972 27.438333 -4.854271 -11.277955 -8.414958 0.000000 0.000000 0.000000 0.582937 -15.010768 11.127257 1.370215 -15.164994 -19.495274 -1.444364 2.968752 26.075656 6.792597 7.285799 -10.124482 0.000000 0.000000 0.000000 -0.337879 -9.972061 1.150548 -0.074875 8.863208 -5.937949 -1.089298 0.764023 15.847393 -0.007387 0.053236 0.004265 -0.774493 1.442010 12.771247 -3.973642 0.171484 4.216015 0.000000 0.000000 0.000000 0.501833 2.010694 9.319038 8.758469 -9.402450 6.652337 -60.303248 -7.848056 -17.839279 -20.502119 -82.821897 37.608162 0.000000 0.000000 0.000000 -3.666714 3.880269 8.613494 31.991633 17.820184 13.425006 44.829926 54.077941 21.329059 -24.020020 79.417082 -23.434545 0.000000 0.000000 0.000000 
15.177983 81.590874 4.748916 179.801520 -24.136844 -179.945760 -4.434537 -12.781772 12.608861 7.678163 -2.664743 -26.126621 -0.637783 0.907148 27.672645 -4.845308 -11.173542 -8.352199 0.000000 0.000000 0.000000 0.495306 -15.643884 10.960466 1.600214 -15.864585 -19.936236 -1.443766 2.672218 26.632950 6.881726 7.545119 -10.395576 0.000000 0.000000 0.000000 -0.453224 -10.405350 1.279488 -0.294296 9.195001 -5.696604 -1.156467 0.918717 16.398606 0.002347 0.060498 0.011447 -0.837058 1.585689 13.234571 -4.032591 -0.020693 4.293661 0.000000 0.000000 0.000000 0.420685 2.148740 9.797003 8.266932 -10.630664 6.605254 -59.509205 -9.869074 -19.972129 -9.588810 -75.723589 26.244609 0.000000 0.000000 0.000000 -3.598449 3.999499 9.127847 33.076069 18.830765 13.752662 44.888020 56.200135 22.600514 -16.268722 73.082724 -14.481008 0.000000 0.000000 0.000000 
15.304096 81.470329 5.174530 179.866803 -25.132794 -179.944776 -4.391836 -13.041715 12.523940 7.943096 -3.293788 -26.662890 -0.822893 0.808039 27.967451 -4.748797 -11.139164 -8.657190 0.000000 0.000000 0.000000 0.411051 -16.020019 10.841038 1.929836 -16.494931 -20.361110 -1.215291 2.757523 27.238106 6.822976 7.605963 -10.600406 0.000000 0.000000 0.000000 -0.529803 -10.749090 1.331850 -0.443007 9.418167 -5.241982 -1.180308 1.032472 16.770734 0.024147 0.073599 -0.021963 -1.003855 1.628686 13.709083 -4.156080 -0.324528 4.295868 0.000000 0.000000 0.000000 0.317330 2.275061 10.214216 7.760681 -11.789292 6.456695 -58.696740 -11.702547 -21.945692 -4.965775 -68.080785 21.143942 0.000000 0.000000 0.000000 -3.609613 4.124388 9.682446 33.879378 19.698286 13.936589 44.838659 58.201428 23.851827 -13.331988 67.668597 -10.460848 0.000000 0.000000 0.000000 
